<svg width="80" height="80" fill="none" xmlns="http://www.w3.org/2000/svg"><path d="m40 0 .008 39.96 15.3-36.915-15.286 36.922 28.262-28.251-28.25 28.262 36.921-15.285-36.916 15.3L80 40l-39.96.008 36.915 15.3-36.922-15.286 28.251 28.262-28.262-28.25 15.285 36.921-15.3-36.916L40 80l-.008-39.96-15.3 36.915 15.286-36.922-28.262 28.251 28.25-28.262L3.046 55.307l36.916-15.3L0 40l39.96-.008-36.915-15.3 36.922 15.286-28.251-28.262 28.262 28.25L24.693 3.046l15.3 36.916L40 0Z" fill="#C8FEC7" stroke="#C8FEC7" stroke-width="4"/></svg>