<svg width="53" height="53" fill="none" xmlns="http://www.w3.org/2000/svg"><g clip-path="url('#clip0_103_4749')" fill="#fff"><path d="M19.933 46.5a6.67 6.67 0 0 0 6.667-6.666v-6.667h-6.667a6.67 6.67 0 0 0-6.666 6.667 6.669 6.669 0 0 0 6.666 6.666ZM13.267 26.5a6.67 6.67 0 0 1 6.666-6.667H26.6v13.333h-6.667a6.669 6.669 0 0 1-6.666-6.666ZM13.267 13.167A6.67 6.67 0 0 1 19.933 6.5H26.6v13.333h-6.667a6.669 6.669 0 0 1-6.666-6.666ZM26.6 6.5h6.666a6.67 6.67 0 0 1 6.667 6.667 6.67 6.67 0 0 1-6.666 6.666H26.6V6.5ZM39.933 26.5a6.67 6.67 0 0 1-6.666 6.666A6.669 6.669 0 0 1 26.6 26.5a6.67 6.67 0 0 1 6.666-6.667 6.67 6.67 0 0 1 6.667 6.667Z"/></g><rect x="1.1" y="1" width="51" height="51" rx="9.5" stroke="#fff"/><defs><clipPath id="clip0_103_4749"><path fill="#fff" transform="translate(6.6 6.5)" d="M0 0h40v40H0z"/></clipPath></defs></svg>