<svg width="53" height="52" fill="none" xmlns="http://www.w3.org/2000/svg"><g clip-path="url('#clip0_103_4817')" fill="#292929"><path d="M19.933 46a6.669 6.669 0 0 0 6.667-6.666v-6.667h-6.667a6.67 6.67 0 0 0-6.666 6.667A6.67 6.67 0 0 0 19.933 46ZM13.267 26a6.67 6.67 0 0 1 6.666-6.667H26.6v13.333h-6.667A6.67 6.67 0 0 1 13.267 26ZM13.267 12.667A6.67 6.67 0 0 1 19.933 6H26.6v13.333h-6.667a6.67 6.67 0 0 1-6.666-6.666ZM26.6 6h6.666a6.67 6.67 0 0 1 6.667 6.667 6.67 6.67 0 0 1-6.666 6.666H26.6V6ZM39.933 26a6.67 6.67 0 0 1-6.666 6.666A6.669 6.669 0 0 1 26.6 26a6.67 6.67 0 0 1 6.666-6.667A6.67 6.67 0 0 1 39.934 26Z"/></g><rect x="1.1" y=".5" width="51" height="51" rx="9.5" stroke="#E6E6E6"/><defs><clipPath id="clip0_103_4817"><path fill="#fff" transform="translate(6.6 6)" d="M0 0h40v40H0z"/></clipPath></defs></svg>