<svg width="148" height="99" fill="none" xmlns="http://www.w3.org/2000/svg"><path d="M145.616 37.793 77.097 67.904c-.932.408-2.017.616-3.097.616-1.09 0-2.182-.211-3.119-.626L2.363 37.444C.883 36.792 0 35.713 0 34.56v60.925C0 97.43 2.456 99 5.481 99H142.52C145.55 99 148 97.43 148 95.484v-60.57c-.011 1.156-.899 2.229-2.384 2.879Zm-60.993 31.96c1.721-1.592 5.136-1.996 7.63-.889l31.672 14.084c2.489 1.107 3.108 3.297 1.387 4.894-1.063.984-2.773 1.515-4.511 1.515-1.074 0-2.165-.204-3.114-.626L86.015 74.647c-2.5-1.11-3.119-3.3-1.392-4.894ZM24.025 82.948l31.727-14.084c2.483-1.107 5.904-.703 7.625.89 1.721 1.596 1.102 3.786-1.387 4.893L30.263 88.731c-.948.422-2.039.626-3.113.626-1.738 0-3.448-.528-4.511-1.516-1.727-1.6-1.102-3.79 1.386-4.893Z" fill="#FFCE69"/><path d="M27.15 89.353c1.074 0 2.165-.204 3.113-.626L61.99 74.644c2.494-1.104 3.114-3.298 1.387-4.894-1.721-1.593-5.142-1.997-7.625-.89L24.025 82.945c-2.494 1.104-3.113 3.298-1.386 4.894 1.063.984 2.773 1.515 4.51 1.515ZM117.682 88.727c.954.422 2.039.626 3.113.626 1.738 0 3.448-.527 4.512-1.515 1.721-1.593 1.101-3.783-1.387-4.894L92.248 68.86c-2.494-1.107-5.904-.703-7.63.89-1.727 1.593-1.102 3.783 1.386 4.894l31.678 14.083Z" fill="#BC923B"/><path d="M147.616 33.673c-.34-.675-1.096-1.217-1.946-1.653L77.333 1.202c-1.88-.85-4.39-.854-6.271-.014l-68.7 30.48c-3.042 1.337-3.146 4.469 0 5.78l68.519 30.45c.937.414 2.028.625 3.119.625 1.08 0 2.165-.207 3.097-.615l68.519-30.112c2.055-.879 2.943-2.657 2-4.123Z" fill="#FBC34E"/></svg>