<svg width="53" height="52" fill="none" xmlns="http://www.w3.org/2000/svg"><path d="M42.392 7.005c-5.845-.016-27.401.012-32.384 0-1.55 0-2.808 1.22-2.808 2.722v32.552C7.2 43.782 8.458 45 10.008 45h32.384c1.55 0 2.808-1.218 2.808-2.721V9.727c0-1.502-1.257-2.722-2.808-2.722Z" fill="#292929"/><path d="M27.581 38.802V29.25c-.055-1.755.994-3.393 3.105-3.466 2.057 0 2.88 1.568 2.88 3.868v9.15h5.686v-9.808c0-5.254-2.805-7.699-6.546-7.699-3.067 0-4.414 1.714-5.163 2.882l.038-2.48h-5.685c.074 1.605 0 17.105 0 17.105h5.685Zm-8.833-7.418v-9.688h-5.686v17.106h5.686c0-1.796.002-5.647 0-7.418Zm-2.842-12.022c1.982 0 3.217-1.314 3.217-2.955-.017-3.959-6.402-3.915-6.397 0-.004 1.653 1.264 2.975 3.18 2.955Z" fill="#fff"/><rect x=".7" y=".5" width="51" height="51" rx="9.5" stroke="#E6E6E6"/></svg>