<svg width="165" height="62" fill="none" xmlns="http://www.w3.org/2000/svg"><path d="M45.785 27.332a8.227 8.227 0 0 0-2.354 6.59l-.04-.04a9.773 9.773 0 0 1-10.562 10.562l.04.04a8.277 8.277 0 1 0 7.473 7.466l.043.04A9.773 9.773 0 0 1 50.946 41.43l-.042-.04a8.261 8.261 0 0 0 8.502-11.05 8.26 8.26 0 0 0-13.614-3.007h-.007Z" fill="#fff"/><path d="m29.187 39.178-.043-.04a8.173 8.173 0 0 0 8.513-5.38 8.169 8.169 0 0 0 .435-3.562l.043.04a9.776 9.776 0 0 1 10.561-10.56l-.042-.041a8.275 8.275 0 1 0-7.466-7.466l-.04-.042a9.772 9.772 0 0 1-10.562 10.561l.04.043a8.17 8.17 0 0 0-8.948 8.941l-.04-.04a9.779 9.779 0 0 1-6.383 10 9.78 9.78 0 0 1-4.179.561l.04.04a8.274 8.274 0 1 0 7.466 7.466l.043.04a9.773 9.773 0 0 1 10.562-10.56Z" fill="#fff"/><path d="M14.107 34.663a8.216 8.216 0 0 0 2.352-6.59l.042.04a9.774 9.774 0 0 1 10.566-10.561l-.043-.04a8.274 8.274 0 1 0-7.465-7.466l-.04-.04a9.773 9.773 0 0 1-10.562 10.56l.04.041a8.26 8.26 0 1 0 5.115 14.056h-.005ZM87.938 39.975V46.5h-3.915c-2.79 0-4.965-.675-6.525-2.025-1.56-1.38-2.34-3.615-2.34-6.705v-9.99h-3.06v-6.39h3.06v-6.12h7.695v6.12h5.04v6.39h-5.04v10.08c0 .75.18 1.29.54 1.62.36.33.96.495 1.8.495h2.745Zm8.156-21.195c-1.35 0-2.46-.39-3.33-1.17-.84-.81-1.26-1.8-1.26-2.97 0-1.2.42-2.19 1.26-2.97.87-.81 1.98-1.215 3.33-1.215 1.32 0 2.4.405 3.24 1.215.87.78 1.305 1.77 1.305 2.97 0 1.17-.435 2.16-1.305 2.97-.84.78-1.92 1.17-3.24 1.17Zm3.825 2.61V46.5h-7.695V21.39h7.695Zm4.047 12.51c0-2.58.48-4.845 1.44-6.795.99-1.95 2.325-3.45 4.005-4.5 1.68-1.05 3.555-1.575 5.625-1.575 1.77 0 3.315.36 4.635 1.08 1.35.72 2.385 1.665 3.105 2.835V21.39h7.695V46.5h-7.695v-3.555c-.75 1.17-1.8 2.115-3.15 2.835-1.32.72-2.865 1.08-4.635 1.08-2.04 0-3.9-.525-5.58-1.575-1.68-1.08-3.015-2.595-4.005-4.545-.96-1.98-1.44-4.26-1.44-6.84Zm18.81.045c0-1.92-.54-3.435-1.62-4.545-1.05-1.11-2.34-1.665-3.87-1.665-1.53 0-2.835.555-3.915 1.665-1.05 1.08-1.575 2.58-1.575 4.5s.525 3.45 1.575 4.59c1.08 1.11 2.385 1.665 3.915 1.665 1.53 0 2.82-.555 3.87-1.665 1.08-1.11 1.62-2.625 1.62-4.545Zm28.562-12.825c2.94 0 5.28.96 7.02 2.88 1.77 1.89 2.655 4.5 2.655 7.83V46.5h-7.65V32.865c0-1.68-.435-2.985-1.305-3.915-.87-.93-2.04-1.395-3.51-1.395-1.47 0-2.64.465-3.51 1.395-.87.93-1.305 2.235-1.305 3.915V46.5h-7.695V21.39h7.695v3.33c.78-1.11 1.83-1.98 3.15-2.61 1.32-.66 2.805-.99 4.455-.99Z" fill="#fff"/></svg>