<svg width="73" height="28" fill="none" xmlns="http://www.w3.org/2000/svg"><path d="M20.349 12.37a3.656 3.656 0 0 0-1.046 2.93l-.018-.019a4.344 4.344 0 0 1-4.694 4.694l.018.018a3.678 3.678 0 1 0 3.32 3.318l.02.018a4.344 4.344 0 0 1 4.694-4.694l-.02-.018a3.672 3.672 0 1 0-2.271-6.247h-.003Z" fill="#fff"/><path d="m12.972 17.635-.02-.018a3.632 3.632 0 0 0 3.978-3.974l.019.018a4.345 4.345 0 0 1 4.694-4.694l-.02-.018a3.678 3.678 0 1 0-3.317-3.318l-.018-.019a4.344 4.344 0 0 1-4.694 4.694l.018.02a3.632 3.632 0 0 0-3.977 3.973l-.018-.018a4.346 4.346 0 0 1-4.694 4.694l.018.018a3.677 3.677 0 1 0 3.318 3.318l.019.018a4.344 4.344 0 0 1 4.694-4.694Z" fill="#fff"/><path d="M6.27 15.628a3.652 3.652 0 0 0 1.045-2.929l.019.018a4.344 4.344 0 0 1 4.696-4.694l-.02-.018a3.677 3.677 0 1 0-3.317-3.318l-.018-.018A4.343 4.343 0 0 1 3.98 9.363l.018.018a3.671 3.671 0 1 0 2.273 6.247H6.27ZM39.084 18.1V21h-1.74c-1.24 0-2.207-.3-2.9-.9-.694-.613-1.04-1.607-1.04-2.98v-4.44h-1.36V9.84h1.36V7.12h3.42v2.72h2.24v2.84h-2.24v4.48c0 .333.08.573.24.72.16.147.426.22.8.22h1.22Zm3.625-9.42c-.6 0-1.094-.173-1.48-.52-.374-.36-.56-.8-.56-1.32 0-.533.186-.973.56-1.32.386-.36.88-.54 1.48-.54.586 0 1.066.18 1.44.54.386.347.58.787.58 1.32 0 .52-.194.96-.58 1.32-.374.347-.854.52-1.44.52Zm1.7 1.16V21h-3.42V9.84h3.42Zm1.798 5.56c0-1.147.213-2.153.64-3.02.44-.867 1.033-1.533 1.78-2a4.62 4.62 0 0 1 2.5-.7c.787 0 1.473.16 2.06.48.6.32 1.06.74 1.38 1.26V9.84h3.42V21h-3.42v-1.58c-.333.52-.8.94-1.4 1.26-.587.32-1.273.48-2.06.48a4.585 4.585 0 0 1-2.48-.7c-.747-.48-1.34-1.153-1.78-2.02-.427-.88-.64-1.893-.64-3.04Zm8.36.02c0-.853-.24-1.527-.72-2.02a2.275 2.275 0 0 0-1.72-.74c-.68 0-1.26.247-1.74.74-.467.48-.7 1.147-.7 2s.233 1.533.7 2.04c.48.493 1.06.74 1.74.74.68 0 1.253-.247 1.72-.74.48-.493.72-1.167.72-2.02Zm12.694-5.7c1.307 0 2.347.427 3.12 1.28.787.84 1.18 2 1.18 3.48V21h-3.4v-6.06c0-.747-.193-1.327-.58-1.74-.386-.413-.906-.62-1.56-.62-.653 0-1.173.207-1.56.62-.386.413-.58.993-.58 1.74V21h-3.42V9.84h3.42v1.48a3.53 3.53 0 0 1 1.4-1.16c.587-.293 1.247-.44 1.98-.44Z" fill="#fff"/></svg>