<svg width="20" height="20" fill="none" xmlns="http://www.w3.org/2000/svg"><path d="M17.942 13.275c-.134-.225-.509-.575-1.442-.409a7.055 7.055 0 0 1-1.567.109 7.008 7.008 0 0 1-4.925-2.35C8.925 9.416 8.258 7.84 8.25 6.14c0-.95.183-1.866.558-2.733.367-.842.109-1.283-.075-1.467-.191-.191-.641-.458-1.525-.091a8.598 8.598 0 0 0-5.266 8.508c.25 3.442 2.666 6.383 5.866 7.492a8.332 8.332 0 0 0 2.409.458c.133.009.266.017.4.017a8.751 8.751 0 0 0 7.058-3.558c.558-.775.408-1.267.267-1.492Z" fill="#051724"/></svg>