<svg width="20" height="20" fill="none" xmlns="http://www.w3.org/2000/svg"><path d="M10 15.834a5.833 5.833 0 1 0 0-11.667 5.833 5.833 0 0 0 0 11.667ZM10 19.133c-.458 0-.833-.342-.833-.8v-.067c0-.458.375-.833.833-.833.458 0 .833.375.833.833 0 .459-.375.867-.833.867Zm5.95-2.35a.853.853 0 0 1-.592-.242l-.108-.108a.83.83 0 1 1 1.175-1.175l.108.108a.83.83 0 0 1-.583 1.417Zm-11.9 0a.83.83 0 0 1-.592-1.417l.109-.108a.83.83 0 1 1 1.175 1.175l-.109.108a.834.834 0 0 1-.583.242Zm14.283-5.95h-.066a.836.836 0 0 1-.834-.833c0-.459.375-.834.834-.834.458 0 .866.375.866.834 0 .458-.341.833-.8.833Zm-16.6 0h-.066A.836.836 0 0 1 .833 10c0-.459.375-.834.834-.834.458 0 .866.375.866.834 0 .458-.341.833-.8.833Zm14.109-5.842a.83.83 0 0 1-.592-1.417l.108-.108a.83.83 0 1 1 1.175 1.175l-.108.109a.82.82 0 0 1-.583.241Zm-11.684 0a.854.854 0 0 1-.591-.241l-.109-.117a.83.83 0 1 1 1.175-1.175l.109.108a.83.83 0 0 1 0 1.175.809.809 0 0 1-.584.25ZM10 2.533c-.458 0-.833-.342-.833-.8v-.067c0-.458.375-.833.833-.833.458 0 .833.375.833.833 0 .459-.375.867-.833.867Z" fill="#FFF194"/></svg>