<svg width="53" height="52" fill="none" xmlns="http://www.w3.org/2000/svg"><path d="M26.39 9.333a16.667 16.667 0 1 0 0 33.335 16.667 16.667 0 0 0 0-33.335Zm5.3 25.254a1.176 1.176 0 0 1-1.67.586l-4.525-3.516-2.904 2.68a.499.499 0 0 1-.475.064l.557-4.98.018.014.011-.099s8.142-7.412 8.474-7.728c.335-.315.225-.383.225-.383.019-.385-.603 0-.603 0l-10.787 6.94-4.493-1.53s-.69-.248-.755-.792c-.068-.54.778-.833.778-.833l17.861-7.096s1.469-.654 1.469.429L31.69 34.587Z" fill="#000"/><rect x=".9" y=".5" width="51" height="51" rx="9.5" stroke="#E6E6E6"/></svg>