<svg width="152" height="127" viewBox="0 0 152 127" fill="none" xmlns="http://www.w3.org/2000/svg">
<g clip-path="url('#clip0_2_6846')">
<path d="M3.36285 0.704963C-1.28096 14.3335 -1.50399 44.1861 34.7543 54.5686C60.5197 61.9465 72.8617 74.0078 77.9569 83.4319C81.1833 89.3995 82.0558 96.5543 86.067 102.025C96.6517 116.462 118.956 129.125 152.84 103.154" stroke="white" stroke-width="2"></path>
<path d="M20.4154 -12.2259C15.7768 0.119489 15.5651 27.1654 51.8274 36.5857C76.0884 42.8882 88.452 52.9475 94.0706 61.2302C98.2243 67.3532 99.3497 75.3076 104.228 80.8703C115.211 93.3934 137.159 103.4 169.931 80.6486" stroke="white" stroke-width="2"></path>
<path d="M34.4924 -31.1691C29.8557 -19.2902 29.6481 6.73512 65.9118 15.8054C89.5613 21.7207 101.907 31.069 107.72 38.9196C112.272 45.0668 113.535 53.3566 118.78 58.9238C129.911 70.7387 151.705 79.8101 184.022 58.2237" stroke="white" stroke-width="2"></path>
<path d="M59.5368 -42.0676C54.9001 -30.1888 54.6926 -4.16344 90.9562 4.90688C114.606 10.8221 126.951 20.1704 132.765 28.0211C137.316 34.1682 138.579 42.4581 143.824 48.0253C154.956 59.8402 176.749 68.9115 209.067 47.3252" stroke="white" stroke-width="2"></path>
</g>
<defs>
<clipPath id="clip0_2_6846">
<rect width="150" height="125" fill="white" transform="translate(1.25409 0.696411) rotate(0.232359)"></rect>
</clipPath>
</defs>
</svg>
