<svg width="152" height="127" fill="none" xmlns="http://www.w3.org/2000/svg"><g clip-path="url('#clip0_2_6846')" stroke="#fff" stroke-width="2"><path d="M3.363.705c-4.644 13.629-4.867 43.481 31.391 53.864 25.766 7.377 38.108 19.439 43.203 28.863 3.226 5.968 4.099 13.122 8.11 18.593 10.585 14.437 32.889 27.1 66.773 1.129"/><path d="M20.415-12.226C15.777.12 15.565 27.165 51.827 36.586c24.261 6.302 36.625 16.361 42.244 24.644 4.153 6.123 5.279 14.078 10.157 19.64 10.983 12.523 32.931 22.53 65.703-.221"/><path d="M34.492-31.17c-4.636 11.88-4.844 37.905 31.42 46.975 23.65 5.916 35.995 15.264 41.808 23.115 4.552 6.147 5.815 14.437 11.06 20.004 11.131 11.815 32.925 20.886 65.242-.7"/><path d="M59.537-42.068C54.9-30.188 54.693-4.163 90.957 4.907c23.649 5.915 35.994 15.263 41.808 23.114 4.551 6.147 5.814 14.437 11.059 20.004 11.132 11.815 32.925 20.887 65.243-.7"/></g><defs><clipPath id="clip0_2_6846"><path fill="#fff" transform="rotate(.232 -171.096 309.585)" d="M0 0h150v125H0z"/></clipPath></defs></svg>