<svg width="53" height="52" fill="none" xmlns="http://www.w3.org/2000/svg"><path d="M45.368 14.449a15.208 15.208 0 0 1-4.376 1.2 7.631 7.631 0 0 0 3.35-4.215 15.272 15.272 0 0 1-4.84 1.85 7.606 7.606 0 0 0-5.56-2.407c-4.844-.065-8.567 4.666-7.421 9.354-6.332-.318-11.945-3.351-15.704-7.962-2.052 3.346-.887 8.13 2.358 10.172a7.602 7.602 0 0 1-3.45-.952 7.624 7.624 0 0 0 6.111 7.565 7.697 7.697 0 0 1-3.44.131 7.628 7.628 0 0 0 7.116 5.292c-3.014 2.408-7.233 3.664-11.28 3.155 16.273 10.015 34.262-3.106 33.333-19.24a15.505 15.505 0 0 0 3.803-3.943Z" fill="#292929"/><rect x="1.3" y=".5" width="51" height="51" rx="9.5" stroke="#E6E6E6"/></svg>