<svg width="148" height="99" viewBox="0 0 148 99" fill="none" xmlns="http://www.w3.org/2000/svg">
<path d="M145.616 37.793L77.097 67.9043C76.1652 68.3121 75.0799 68.5196 74 68.5196C72.9092 68.5196 71.8184 68.3086 70.881 67.8938L2.36252 37.4449C0.882518 36.791 0 35.7117 0 34.5586V95.4844C0 97.4286 2.4557 99.0001 5.48148 99.0001H142.519C145.55 99.0001 148 97.4286 148 95.4844V34.9137C147.989 36.0703 147.101 37.1426 145.616 37.793ZM84.6231 69.7535C86.3443 68.161 89.7593 67.7567 92.2533 68.8641L123.925 82.9477C126.414 84.0551 127.033 86.2454 125.312 87.8415C124.249 88.8258 122.539 89.3567 120.801 89.3567C119.727 89.3567 118.636 89.1528 117.687 88.7309L86.0154 74.6473C83.5158 73.5364 82.8964 71.3461 84.6231 69.7535ZM24.0253 82.9477L55.7521 68.8641C58.2353 67.7567 61.6557 68.161 63.3769 69.7535C65.0981 71.3496 64.4787 73.5399 61.9901 74.6473L30.2633 88.7309C29.315 89.1528 28.2241 89.3567 27.1498 89.3567C25.4121 89.3567 23.7019 88.8293 22.6385 87.8415C20.9119 86.2418 21.5367 84.0516 24.0253 82.9477Z" fill="#FFCE69"/>
<path d="M27.1498 89.3531C28.2241 89.3531 29.315 89.1491 30.2633 88.7273L61.9901 74.6437C64.4841 73.5398 65.1036 71.346 63.3769 69.7499C61.6557 68.1573 58.2353 67.753 55.7521 68.8605L24.0253 82.9441C21.5313 84.048 20.9119 86.2417 22.6385 87.8378C23.7019 88.8222 25.4121 89.3531 27.1498 89.3531Z" fill="#BC923B"/>
<path d="M117.682 88.7273C118.636 89.1491 119.721 89.3531 120.795 89.3531C122.533 89.3531 124.243 88.8257 125.307 87.8378C127.028 86.2452 126.408 84.055 123.92 82.9441L92.2479 68.8605C89.7538 67.753 86.3443 68.1573 84.6176 69.7499C82.891 71.3425 83.5159 73.5327 86.0045 74.6437L117.682 88.7273Z" fill="#BC923B"/>
<path d="M147.616 33.6726C147.276 32.9976 146.52 32.4561 145.67 32.0202L77.3327 1.20221C75.4526 0.351433 72.9421 0.347917 71.0619 1.18815L2.36251 31.6686C-0.67971 33.0046 -0.783858 36.137 2.36251 37.4483L70.881 67.8972C71.8184 68.312 72.9092 68.523 74 68.523C75.0798 68.523 76.1652 68.3156 77.097 67.9077L145.616 37.7964C147.671 36.9175 148.559 35.1386 147.616 33.6726Z" fill="#FBC34E"/>
</svg>
